#N canvas 155 86 851 678 10;
#X obj 113 622 s send;
#X obj 110 154 vsl 15 128 0 1 0 0 empty empty empty 0 -9 0 10 -262144
-1 -1 6177 1;
#X obj 113 375 clip 0 1;
#X floatatom 282 337 5 0 126 0 - - -;
#X obj 249 419 onebang 1;
#X obj 249 390 sel 1 0;
#X obj 150 269 bng 15 100 25 0 empty empty empty 17 7 0 10 -262144
-1 -1;
#X obj 251 469 onebang 1;
#X obj 128 154 vsl 15 128 0 1 0 0 empty empty empty 0 -9 0 10 -262144
-1 -1 2400 1;
#X obj 247 362 >;
#X msg 113 400 send /level \$1;
#X obj 295 618 sendOSC;
#X obj 296 570 r send;
#X msg 354 574 connect 127.0.0.1 9000;
#X obj 354 547 loadbang;
#X obj 388 102 key;
#X obj 388 128 sel 32;
#N canvas 0 22 450 278 (subpatch) 0;
#X array \$0-ch1 256 float 2;
#X coords 0 1 255 -1 80 60 1 0 0;
#X restore 213 150 graph;
#X obj 579 144 *~ 1;
#X msg 696 177 \; pd dsp \$1;
#X obj 644 95 tgl 15 0 empty empty empty 17 7 0 10 -262144 -1 -1 1
1;
#X obj 622 140 metro 20;
#N canvas 0 22 450 278 (subpatch) 0;
#X array \$0-ch2 256 float 2;
#X coords 0 1 255 -1 80 60 1 0 0;
#X restore 213 228 graph;
#X obj 530 143 *~ 1;
#X floatatom 600 95 5 0 0 0 - - -;
#X floatatom 530 281 5 0 0 0 - - -;
#X obj 533 511 hsl 128 15 0 1 0 0 empty empty empty -2 -8 0 10 -262144
-1 -1 4146 1;
#X obj 530 255 peakamp~;
#X floatatom 591 280 5 0 0 0 - - -;
#X obj 591 254 peakamp~;
#X obj 591 306 * 0.5;
#X obj 530 306 * 0.5;
#X obj 530 333 +;
#X obj 530 356 sqrt;
#X obj 618 404 hsl 128 15 0 1 0 0 empty empty empty -2 -8 0 10 -262144
-1 -1 1389 1;
#X obj 530 432 f;
#X obj 530 405 t b f;
#X obj 530 457 expr ($f1*$f2)+((-$f2+1)*$f3);
#X obj 530 485 clip -1 1;
#X obj 530 58 adc~ 1 2;
#X obj 699 232 tabwrite~ \$0-ch2;
#X obj 678 273 tabwrite~ \$0-ch1;
#X obj 530 538 s \$0-lv;
#X obj 110 107 tgl 15 0 \$0-start empty empty 17 7 0 10 -262144 -1
-1 1 1;
#X obj 29 35 r \$0-lv;
#X obj 645 70 r \$0-start;
#X text 127 105 ON/OFF;
#X obj 300 444 del 100;
#X obj 154 162 hsl 50 10 0 1 0 0 \$0-smooth empty smooth -2 -8 0 10
-1 -260097 -1 700 1;
#X obj 611 376 r \$0-smooth;
#X msg 208 517 send /bang bang;
#X obj 150 248 tgl 15 0 empty empty empty 17 7 0 10 -262144 -1 -1 1
1;
#X obj 179 319 spigot;
#X obj 314 93 loadbang;
#X msg 313 118 1;
#X text 166 264 bang;
#X obj 108 332 f;
#X obj 59 291 metro 20;
#X obj 54 260 tgl 15 0 empty empty empty 17 7 0 10 -262144 -1 -1 1
1;
#X obj 31 201 loadbang;
#X msg 36 223 1;
#X obj 153 188 hsl 50 10 0 3 0 0 \$0-gain empty gain -2 -8 0 10 -1
-260097 -1 600 1;
#X obj 29 82 * 1;
#X floatatom 88 57 5 0 0 0 - - -;
#X obj 88 35 r \$0-gain;
#X connect 1 0 9 0;
#X connect 1 0 56 1;
#X connect 2 0 10 0;
#X connect 3 0 9 1;
#X connect 4 0 7 0;
#X connect 4 0 47 0;
#X connect 5 0 4 0;
#X connect 5 1 4 1;
#X connect 6 0 50 0;
#X connect 7 0 52 0;
#X connect 8 0 3 0;
#X connect 9 0 5 0;
#X connect 10 0 0 0;
#X connect 12 0 11 0;
#X connect 13 0 11 0;
#X connect 14 0 13 0;
#X connect 15 0 16 0;
#X connect 16 0 6 0;
#X connect 18 0 29 0;
#X connect 18 0 40 0;
#X connect 20 0 19 0;
#X connect 20 0 21 0;
#X connect 21 0 27 0;
#X connect 21 0 29 0;
#X connect 21 0 40 0;
#X connect 21 0 41 0;
#X connect 23 0 27 0;
#X connect 23 0 41 0;
#X connect 24 0 23 1;
#X connect 24 0 18 1;
#X connect 25 0 31 0;
#X connect 26 0 42 0;
#X connect 27 0 25 0;
#X connect 28 0 30 0;
#X connect 29 0 28 0;
#X connect 30 0 32 1;
#X connect 31 0 32 0;
#X connect 32 0 33 0;
#X connect 33 0 36 0;
#X connect 34 0 37 1;
#X connect 35 0 37 0;
#X connect 36 0 35 0;
#X connect 36 1 37 2;
#X connect 37 0 35 1;
#X connect 37 0 38 0;
#X connect 38 0 26 0;
#X connect 39 0 23 0;
#X connect 39 1 18 0;
#X connect 44 0 62 0;
#X connect 45 0 20 0;
#X connect 47 0 7 1;
#X connect 49 0 34 0;
#X connect 50 0 0 0;
#X connect 51 0 52 1;
#X connect 52 0 6 0;
#X connect 53 0 54 0;
#X connect 54 0 51 0;
#X connect 56 0 2 0;
#X connect 57 0 56 0;
#X connect 58 0 57 0;
#X connect 59 0 60 0;
#X connect 60 0 58 0;
#X connect 62 0 1 0;
#X connect 63 0 62 1;
#X connect 64 0 63 0;
#X coords 0 -1 1 1 200 200 2 100 100;
