#N canvas 0 22 450 300 10;
#N canvas 0 22 450 278 (subpatch) 0;
#X array \$0-ch1 256 float 2;
#X coords 0 1 255 -1 80 60 1 0 0;
#X restore 237 36 graph;
#X obj 97 77 *~ 1;
#X msg 214 110 \; pd dsp \$1;
#X obj 166 29 tgl 15 0 empty empty empty 17 7 0 10 -262144 -1 -1 0
1;
#X obj 140 73 metro 20;
#X obj 140 29 tgl 15 0 empty empty empty 17 7 0 10 -262144 -1 -1 0
1;
#X obj 97 104 tabwrite~ \$0-ch1;
#N canvas 0 22 450 278 (subpatch) 0;
#X array \$0-ch2 256 float 2;
#X coords 0 1 255 -1 80 60 1 0 0;
#X restore 319 36 graph;
#X obj 48 132 tabwrite~ \$0-ch2;
#X obj 48 76 *~ 1;
#X obj 48 28 adc~ 1;
#X obj 97 28 adc~ 2;
#X obj 65 340 tabread \$0-ch1;
#X obj 65 262 until;
#X obj 65 292 f;
#X obj 93 292 + 1;
#X obj 106 262 0;
#X msg 65 214 256;
#X obj 65 369 * 0.5;
#X obj 65 392 pow 2;
#X obj 162 370 * 0.5;
#X obj 162 393 pow 2;
#X obj 162 341 tabread \$0-ch2;
#X obj 65 313 t f f;
#X obj 65 453 f;
#X obj 162 420 +;
#X obj 65 420 +;
#X obj 50 507 / 512;
#X obj 50 484 f;
#X obj 50 186 t b b b;
#X msg 150 268 0;
#X obj 65 237 t a b;
#X obj 50 532 sqrt;
#X obj 152 541 hsl 128 15 0 1 0 0 empty empty empty -2 -8 0 10 -262144
-1 -1 0 1;
#X floatatom 190 26 5 0 0 0 - - -;
#X obj 122 583 f;
#X obj 69 607 *;
#X obj 50 658 +;
#X obj 50 556 t f b b;
#X obj 50 632 expr (-$f2+1)*$f1;
#X obj 50 684 expr ($f1 / 0.17) * 1;
#X obj 53 730 hsl 128 15 0 1 0 0 empty empty empty -2 -8 0 10 -262144
-1 -1 0 1;
#X obj 69 583 f;
#X obj 50 707 clip -1 1;
#X connect 1 0 6 0;
#X connect 3 0 2 0;
#X connect 3 0 4 0;
#X connect 4 0 6 0;
#X connect 4 0 8 0;
#X connect 4 0 29 0;
#X connect 5 0 4 0;
#X connect 9 0 8 0;
#X connect 10 0 9 0;
#X connect 11 0 1 0;
#X connect 12 0 18 0;
#X connect 13 0 14 0;
#X connect 14 0 15 0;
#X connect 14 0 23 0;
#X connect 15 0 14 1;
#X connect 16 0 14 1;
#X connect 17 0 31 0;
#X connect 18 0 19 0;
#X connect 19 0 26 0;
#X connect 20 0 21 0;
#X connect 21 0 25 0;
#X connect 22 0 20 0;
#X connect 23 0 12 0;
#X connect 23 1 22 0;
#X connect 24 0 25 1;
#X connect 24 0 26 1;
#X connect 24 0 28 1;
#X connect 25 0 24 0;
#X connect 26 0 24 0;
#X connect 27 0 32 0;
#X connect 28 0 27 0;
#X connect 29 0 28 0;
#X connect 29 1 17 0;
#X connect 29 2 30 0;
#X connect 30 0 24 0;
#X connect 31 0 13 0;
#X connect 31 1 16 0;
#X connect 32 0 38 0;
#X connect 33 0 35 1;
#X connect 34 0 9 1;
#X connect 34 0 1 1;
#X connect 35 0 36 1;
#X connect 35 0 39 1;
#X connect 36 0 37 1;
#X connect 37 0 40 0;
#X connect 38 0 39 0;
#X connect 38 1 42 0;
#X connect 38 2 35 0;
#X connect 39 0 37 0;
#X connect 40 0 43 0;
#X connect 42 0 36 0;
#X connect 43 0 41 0;
